<svg version="1" xmlns="http://www.w3.org/2000/svg" width="726" height="639" viewBox="0 0 7260 6390"><g fill="#020202"><path d="M5885 6371c-27-10-525-314-1105-676s-1069-667-1087-677l-32-20-1073 669c-590 368-1088 675-1107 681-85 30-181 4-240-63-44-51-61-93-61-155 0-59 16-102 54-148 17-19 412-272 999-638 535-333 976-609 980-614 5-4-182-126-415-271s-437-276-454-291c-35-31-69-93-84-156-10-39-21-50-125-128-148-109-606-413-1107-735-363-231-399-257-409-289-21-65-34-73-117-65-89 8-115-5-133-67-16-57-25-66-61-70-65-6-36-60 32-62 39-1 46 2 66 34 53 81 45 77 161 69 62-4 87 14 105 74 9 30 24 47 67 76 183 124 1099 650 1467 842l152 80 94-7 95-7 556 347c340 212 562 344 569 340s261-162 564-350c304-189 564-348 579-354 35-13 108-13 154 1 35 10 44 8 132-36 220-111 625-339 1119-630 377-222 555-326 618-360 67-36 118-92 132-144 12-46 35-73 59-69 13 3 16 16 16 64 0 79-31 128-123 189-37 25-231 156-432 290s-504 337-674 451c-170 113-384 254-475 311-197 124-217 141-224 194-3 22-20 60-39 86-30 42-92 84-504 341-258 162-468 296-467 298 1 3 453 287 1005 631s1012 632 1022 641c31 28 66 113 66 162 0 97-70 187-168 216-59 18-86 17-147-5z"/><path d="M2876 3689l-26-20v-409h230v200c0 200 0 201-25 225-21 21-33 25-88 25-50 0-70-5-91-21zM3226 3689c-26-20-26-21-26-165v-144h230v140c0 136-1 142-25 165-21 21-33 25-88 25-50 0-70-5-91-21zM3596 3689l-26-20v-469h230v461l-25 24c-21 21-33 25-88 25-50 0-70-5-91-21zM3956 3689l-26-20v-399h230v195c0 195 0 196-25 220-21 21-33 25-88 25-50 0-70-5-91-21zM4306 3689c-26-20-26-21-26-165v-144h230v140c0 136-1 142-25 165-21 21-33 25-88 25-50 0-70-5-91-21zM3200 3325c0-31 3-35 25-35 25 0 25 0 25-95s0-95-25-95c-22 0-25-4-25-35v-35h230v35c0 31-3 35-25 35-25 0-25 0-25 95s0 95 25 95c22 0 25 4 25 35v35h-230v-35z"/><path d="M4280 3155v-205h-120v300h-230v-510h-130v440h-230v-340h-140v170h-230v-250h-120v480h-229l-3-126-3-126-60-24c-237-97-496-279-645-456-162-192-260-381-322-618-26-99-30-139-35-290-4-139-2-193 11-265 40-211 111-393 218-557 439-672 1356-947 2148-645 696 265 1122 915 1040 1587-23 182-96 399-187 555-98 167-256 343-415 463l-88 65v557h-230v-205zm-315-767c-4-18-15-60-25-93s-30-108-44-168c-15-59-31-118-36-131-7-20-4-28 20-50 113-100 84-273-54-330-80-33-171-7-229 66-26 32-30 46-31 105-1 55 4 76 23 111 14 23 35 49 47 57 20 13 22 19 13 47-5 18-18 69-28 113-18 75-61 237-76 284-6 21-5 21 210 21h217l-7-32zm-873-734c125-37 268-155 323-268 102-212 62-450-105-616-106-106-220-151-380-151-144 1-268 53-373 158-156 156-196 400-97 600 116 234 380 350 632 277zm1380-86c79-36 142-98 181-177 27-56 32-78 35-156 3-73 0-101-18-148-44-118-141-203-268-235-159-39-339 51-410 206-35 76-43 205-17 283 39 119 126 205 250 246 63 20 179 12 247-19z"/></g><g fill="#fefefe"><path d="M0 3195V0h7260v6390l-632-1c-533 0-626-2-592-13 95-30 164-121 164-216 0-49-35-134-66-162-10-9-470-297-1022-641s-1004-628-1005-631c-1-2 209-136 467-298 412-257 474-299 504-341 19-26 36-64 39-86 7-53 27-70 224-194 91-57 305-198 475-311 170-114 473-317 674-451s395-265 432-290c92-61 123-110 123-189 0-48-3-61-16-64-24-4-47 23-59 69-14 52-65 108-132 144-63 34-241 138-618 360-494 291-899 519-1119 630-88 44-97 46-132 36-46-14-119-14-154-1-15 6-275 165-579 354-303 188-557 346-564 350s-229-128-569-340l-556-347-95 7-94 7-152-80c-368-192-1284-718-1467-842-43-29-58-46-67-76-18-60-43-78-105-74-116 8-108 12-161-69-20-32-27-35-66-34-68 2-97 56-32 62 36 4 45 13 61 70 18 62 44 75 133 67 83-8 96 0 117 65 10 32 46 58 409 289 501 322 959 626 1107 735 104 78 115 89 125 128 15 63 49 125 84 156 17 15 221 146 454 291s420 267 415 271c-4 5-445 281-980 614-587 366-982 619-999 638-38 46-54 89-54 148 0 62 17 104 61 155 59 67 155 93 240 63 19-6 517-313 1107-681l1073-669 32 20c18 10 507 315 1087 677s1078 666 1105 676c48 18-40 18-2917 19H0V3195zm3055 490c25-24 25-25 25-225v-200h-230v409l26 20c21 16 41 21 91 21 55 0 67-4 88-25zm350 0c24-23 25-29 25-165v-140h-230v144c0 144 0 145 26 165 21 16 41 21 91 21 55 0 67-4 88-25zm370 0l25-24v-461h-230v469l26 20c21 16 41 21 91 21 55 0 67-4 88-25zm360 0c25-24 25-25 25-220v-195h-230v399l26 20c21 16 41 21 91 21 55 0 67-4 88-25zm350 0c24-23 25-29 25-165v-140h-230v144c0 144 0 145 26 165 21 16 41 21 91 21 55 0 67-4 88-25zm-1055-360c0-31-3-35-25-35-25 0-25 0-25-95s0-95 25-95c22 0 25-4 25-35v-35h-230v35c0 31 3 35 25 35 25 0 25 0 25 95s0 95-25 95c-22 0-25 4-25 35v35h230v-35zm1080-243v-279l88-65c159-120 317-296 415-463 91-156 164-373 187-555 54-444-117-899-461-1225-281-266-645-430-1051-474-408-45-852 58-1186 275-328 214-571 526-665 859-50 177-60 255-54 445 5 151 9 191 35 290 62 237 160 426 322 618 149 177 408 359 645 456l60 24 3 126 3 126h229v-480h120v250h230v-170h140v340h230v-440h130v510h230v-300h120v410h230v-278z"/><path d="M3545 2399c15-47 58-209 76-284 10-44 23-95 28-113 9-28 7-34-13-47-12-8-33-34-47-57-19-35-24-56-23-111 1-59 5-73 31-105 58-73 149-99 229-66 138 57 167 230 54 330-24 22-27 30-20 50 5 13 21 72 36 131 14 60 34 135 44 168s21 75 25 93l7 32h-217c-215 0-216 0-210-21zM2825 1664c-336-75-515-441-366-747 89-185 268-297 471-298 160 0 274 45 380 151 106 105 160 232 160 375 0 136-45 253-136 353-128 142-326 207-509 166zM4225 1587c-124-41-211-127-250-246-26-78-18-207 17-283 71-155 251-245 410-206 127 32 224 117 268 235 18 47 21 75 18 148-3 78-8 100-35 156-62 126-175 200-313 206-44 2-91-3-115-10z"/></g></svg>